<?xml version="1.0" encoding="UTF-8" standalone="no"?><!DOCTYPE svg PUBLIC "-//W3C//DTD SVG 1.1//EN" "http://www.w3.org/Graphics/SVG/1.1/DTD/svg11.dtd"><svg width="100%" height="100%" viewBox="0 0 561 142" version="1.1" xmlns="http://www.w3.org/2000/svg" xmlns:xlink="http://www.w3.org/1999/xlink" xml:space="preserve" xmlns:serif="http://www.serif.com/" style="fill-rule:evenodd;clip-rule:evenodd;stroke-linejoin:round;stroke-miterlimit:2;"><rect id="Prancheta1" x="0" y="0" width="560.258" height="141.656" style="fill:none;"/><g><g id="LOGO-NINHO" serif:id="LOGO NINHO"><path d="M190.371,59.942c-0.424,3.653 -0.244,5.861 -1.393,5.811c-14.554,-0.64 -15.751,0.999 -14.675,1.483c0.847,0.38 1.135,-0.447 10.92,3.912c3.022,1.346 3.574,1.634 2.803,3.227c-1.348,2.784 -2.056,5.839 -3.081,5.392c-1.573,-0.686 -18.55,-8.094 -20.2,-7.217c-3.081,1.639 -2.894,1.884 -5.97,3.511c-14.236,7.531 -27.668,8.491 -30.059,9.751c-11.354,5.986 -11.653,5.25 -13.242,5.874c-2.246,0.883 9.112,1.659 12.075,1.715c11.501,0.219 13.433,-1.704 13.666,-0.363c1.199,6.923 1.226,7.149 0.671,7.351c-0.632,0.23 -7.791,0.994 -13.603,0.811c-21.657,-0.68 -25.014,-5.622 -29.782,-4.778c-9.398,1.664 -21.009,1.342 -26.125,-0.064c-0.304,-0.084 -1.35,0.203 -0.12,0.871c8.212,4.468 26.578,14.478 54.195,13.197c30.372,-1.408 51.664,-17.644 60.621,-27.002c1.392,-1.454 1.66,-0.265 4.543,2.575c1.832,1.805 2.035,1.712 2.048,2.272c0.013,0.605 -22.275,23.803 -55.081,28.665c-49.225,7.295 -77.332,-16.893 -89.902,-27.753c-1.139,-0.984 -0.024,-1.179 3.267,-6.321c1.039,-1.623 1.46,-0.67 3.184,0.173c12.173,5.954 31.819,7.59 29.959,6.115c-0.885,-0.702 -1.477,0.275 -11.856,-7.662c-5.609,-4.29 -8.032,-7.955 -9.299,-7.777c-11.669,1.644 -21.35,1.521 -33.427,-2.898c-1.998,-0.731 -0.542,-1.881 1.293,-5.773c0.729,-1.545 0.702,-2.362 2.231,-1.611c9.189,4.511 19.579,3.236 23.639,3.185c3.631,-0.046 -6.33,-2.971 -15.574,-31.273c-0.641,-1.961 -1.864,-4.628 -0.925,-5.062c0.257,-0.119 6.136,-2.011 6.912,-1.874c0.801,0.14 4.298,14.753 21.492,29.907c6.706,5.911 7.853,5.697 8.662,5.547c25.851,-4.81 25.967,-3.715 33.1,-4.409c0.821,-0.08 0.787,-0.74 -0.011,-0.832c-4.659,-0.533 -14.083,-0.789 -36.318,-8.399c-8.318,-2.847 -8.477,-3.119 -8.384,-3.852c0.044,-0.343 2.669,-5.734 2.91,-6.228c0.901,-1.85 1.097,1.965 24.534,7.715c10.904,2.675 46.736,11.069 91.168,-6.825c2.789,-1.123 6.903,-12.549 7.438,-12.654c0.517,-0.101 0.844,-0.165 6.2,2.232c1.38,0.617 0.113,2.222 -1.491,5.776c-3.477,7.704 -11.064,18.075 -14.338,20.957c-1.607,1.415 2.805,0.153 6.66,0.465c1.376,0.111 0.662,0.753 0.667,2.135Zm-12.823,-7.726c-0.004,-0.472 0.108,-0.764 -0.326,-0.587c-7.333,2.998 -7.354,2.914 -15.097,4.644c-10.201,2.28 -10.257,1.751 -20.657,2.834c-0.498,0.052 -0.682,0.721 0.435,0.801c6.452,0.462 13.243,2.025 16.538,2.642c1.704,0.319 4.288,-1.415 8.843,-2.559c4.337,-1.089 3.935,-1.858 10.264,-7.776Zm-32.325,16.193c-0.01,-0.106 0.23,-0.126 0.221,-0.233c-0.007,-0.081 -17.631,-2.397 -32.969,-1.12c-13.069,1.088 -24.583,2.83 -24.602,2.862c-0.418,0.682 10.486,4.648 17.631,6.078c9.541,1.909 21.091,2.26 23.857,0.82c5.78,-3.009 12.082,-6.72 15.801,-8.089l0.06,-0.319Zm-33.975,16c-2.697,-0.342 -2.704,-0.03 -6.89,-0.823c-17.235,-3.262 -28.214,-11.279 -28.651,-11.073c-0.674,0.317 -0.276,0.839 7.053,6.072c2.591,1.85 15.961,9.848 19.009,9.152c2.553,-0.583 9.478,-2.809 9.493,-2.852c0.053,-0.15 -0.067,-0.327 -0.014,-0.477Z" style="fill:#484845;"/><path d="M35.172,84.577c0.03,0.113 0.06,0.227 0.09,0.34c0.517,-0.003 5.691,-1.633 10.654,-5.807c0.057,-0.048 1.434,-1.031 0.635,0.674c-0.761,1.626 -6.669,14.247 -20.829,8.345c-1.55,-0.646 -0.267,-1.153 2.015,-5.085c3.913,-6.741 7.125,-9.678 16.311,-6.899c2.467,0.747 -5.195,6.223 -8.235,7.971c-0.349,0.2 -0.303,0.218 -0.641,0.461Z" style="fill:#444442;"/><path d="M211.279,42.642c-0.644,2.869 -1.883,9.992 -10.202,13.171c-3.848,1.47 -10.044,1.382 -7.042,-0.042c5.655,-2.683 11.865,-9.723 7.772,-6.611c-2.413,1.835 -9.295,5.703 -9.643,4.203c-0.271,-1.168 1.446,-9.449 7.864,-10.985c4.039,-0.967 4.404,-0.062 9.194,-0.676c1.466,-0.188 2.15,-0.538 2.057,0.94Z" style="fill:#444341;"/><path d="M48.37,59.96c-0.028,0.537 0.38,1.62 -1.343,1.005c-3.594,-1.283 -7.861,-3.884 -8.512,-4.281c-4.356,-2.656 0.097,1.196 0.176,1.259c5.281,4.246 11.222,5.803 6.094,5.902c-13.785,0.267 -16.676,-14.775 -15.088,-14.998c0.614,-0.086 0.595,0.269 7.734,0.433c0.502,0.012 9.081,-0.574 10.938,10.68Z" style="fill:#434340;"/><path d="M211.351,71.676c-10.996,13.545 -24.404,2.575 -20.92,2.508c2.437,-0.047 3.055,0.957 10.451,-0.456c4.04,-0.772 -1.118,-0.652 -1.229,-0.65c-1.264,0.029 -10.025,-0.187 -10.121,-1.713c-0.04,-0.631 5.928,-8.201 13.348,-5c4.329,1.867 4.087,2.33 8.483,3.991c0.806,0.305 0.425,0.567 -0.013,1.32Z" style="fill:#444442;"/><path d="M163.59,96.364c0.167,2.425 -0.884,2.005 -3.305,2.034c-6.144,0.075 -13.422,0.13 -15.694,-11.247c-0.416,-2.081 7.357,1.87 8.64,2.711c0.175,0.115 7.198,4.714 2.512,0.729c-6.209,-5.282 -6.588,-4.804 -8.988,-5.777c-2.675,-1.083 8.04,-3.481 13.723,4.319c2.108,2.893 2.971,6.617 3.113,7.231Z" style="fill:#424140;"/><path d="M39.557,34.583c0.323,2.207 0.655,2.391 0.127,2.611c-1.558,0.649 -17.261,-9.46 -5.828,-0.925c1.37,1.023 6.5,3.877 4.34,3.928c-15.245,0.355 -17.243,-14.091 -16.197,-14.793c0.488,-0.327 0.541,0.291 7.338,0.416c9.269,0.17 10.043,7.987 10.22,8.764Z" style="fill:#444441;"/></g><g><path d="M282.769,105.258l-13.189,0c-0.4,-0 -0.774,-0.199 -0.998,-0.531l-27.062,-40.135l0,39.462c0,0.664 -0.539,1.203 -1.203,1.203l-13.292,0c-0.664,-0 -1.203,-0.539 -1.203,-1.203l0,-64.612c-0,-0.664 0.539,-1.203 1.203,-1.203l15.147,0c0.406,0 0.784,0.205 1.007,0.544l24.992,38.175l0,-37.516c0,-0.664 0.539,-1.203 1.203,-1.203l13.395,0c0.664,0 1.203,0.539 1.203,1.203l0,64.612c0,0.664 -0.539,1.203 -1.203,1.203Z" style="fill:#484845;"/><path d="M307.395,105.258l-14.322,0c-0.664,-0 -1.203,-0.539 -1.203,-1.203l0,-64.612c-0,-0.664 0.539,-1.203 1.203,-1.203l14.322,0c0.664,0 1.203,0.539 1.203,1.203l0,64.612c-0,0.664 -0.539,1.203 -1.203,1.203Z" style="fill:#484845;"/><path d="M373.236,105.258l-13.189,0c-0.4,-0 -0.774,-0.199 -0.998,-0.531l-27.062,-40.135l0,39.462c0,0.664 -0.539,1.203 -1.203,1.203l-13.292,0c-0.664,-0 -1.203,-0.539 -1.203,-1.203l0,-64.612c-0,-0.664 0.539,-1.203 1.203,-1.203l15.147,0c0.406,0 0.784,0.205 1.007,0.544l24.992,38.175l0,-37.516c0,-0.664 0.539,-1.203 1.203,-1.203l13.395,0c0.664,0 1.203,0.539 1.203,1.203l0,64.612c0,0.664 -0.539,1.203 -1.203,1.203Z" style="fill:#484845;"/><path d="M438.974,105.258l-14.425,0c-0.664,-0 -1.203,-0.539 -1.203,-1.203l-0,-27.794l-24.281,0l0,27.794c0,0.664 -0.539,1.203 -1.203,1.203l-14.322,0c-0.664,-0 -1.203,-0.539 -1.203,-1.203l0,-64.612c-0,-0.664 0.539,-1.203 1.203,-1.203l14.322,0c0.664,0 1.203,0.539 1.203,1.203l0,23.124l24.281,-0l0,-23.124c-0,-0.664 0.539,-1.203 1.203,-1.203l14.425,0c0.664,0 1.203,0.539 1.203,1.203l0,64.612c-0,0.664 -0.539,1.203 -1.203,1.203Z" style="fill:#484845;"/><path d="M481.22,107.496c-10.891,0 -19.388,-3.198 -25.181,-9.172c-5.78,-5.961 -8.891,-14.723 -8.891,-25.991c0,-11.302 3.103,-20.328 8.874,-26.544c5.796,-6.243 14.301,-9.69 25.199,-9.69c10.902,0 19.357,3.449 25.102,9.733c5.715,6.25 8.764,15.347 8.764,26.793c0,11.473 -3.066,20.159 -8.794,25.997c-5.739,5.848 -14.182,8.875 -25.073,8.875Zm0,-13.986c4.802,0 9.134,-1.563 12.255,-4.93c3.182,-3.433 5.089,-8.697 5.089,-15.955c0,-8.72 -2.166,-15.007 -6.429,-18.615c-2.786,-2.358 -6.455,-3.536 -10.915,-3.536c-4.503,0 -8.215,1.179 -11.037,3.54c-4.311,3.607 -6.513,9.892 -6.513,18.61c0,7.266 1.579,12.538 4.63,15.975c2.994,3.372 7.39,4.911 12.92,4.911Z" style="fill:#484845;"/></g></g></svg>